<svg data-v-423bf9ae="" xmlns="http://www.w3.org/2000/svg" viewBox="0 0 541.708934841982 163" class="iconAbove"><!----><!----><defs data-v-423bf9ae=""><linearGradient data-v-423bf9ae="" gradientTransform="rotate(25)" id="8a649300-4661-42d0-bde8-482ff33c70d5" x1="0%" y1="0%" x2="100%" y2="0%"><stop data-v-423bf9ae="" offset="0%" style="stop-color: rgb(146, 132, 219); stop-opacity: 1;"></stop><stop data-v-423bf9ae="" offset="100%" style="stop-color: rgb(39, 5, 199); stop-opacity: 1;"></stop></linearGradient></defs><g data-v-423bf9ae="" id="ecffd334-4531-4d23-a35b-0ff0643a8660" fill="url(#8a649300-4661-42d0-bde8-482ff33c70d5)" transform="matrix(5.992977142333984,0,0,5.992977142333984,-6.952803134918213,58.77838134765625)"><path d="M1.16 17.18L1.76 8.43L3.37 8.43L5.49 15.40L5.59 15.40L7.71 8.43L9.32 8.43L9.93 17.18L8.82 17.18L8.33 9.74L8.25 9.74L6.01 17.18L5.08 17.18L2.84 9.74L2.76 9.74L2.27 17.18L1.16 17.18ZM14.91 17.30L14.91 17.30Q13.66 17.30 13.06 17.02L13.06 17.02L13.06 17.02Q12.46 16.73 12.24 15.98L12.24 15.98L12.24 15.98Q12.01 15.23 12.01 13.68L12.01 13.68L12.01 13.68Q12.01 12.12 12.24 11.38L12.24 11.38L12.24 11.38Q12.46 10.63 13.06 10.34L13.06 10.34L13.06 10.34Q13.66 10.05 14.91 10.05L14.91 10.05L14.91 10.05Q16.17 10.05 16.77 10.33L16.77 10.33L16.77 10.33Q17.37 10.61 17.60 11.36L17.60 11.36L17.60 11.36Q17.82 12.11 17.82 13.68L17.82 13.68L17.82 13.68Q17.82 15.23 17.60 15.98L17.60 15.98L17.60 15.98Q17.37 16.73 16.77 17.02L16.77 17.02L16.77 17.02Q16.16 17.30 14.91 17.30L14.91 17.30ZM13.16 16.35L15.97 16.35L15.97 16.35Q16.39 16.35 16.53 16.28L16.53 16.28L16.53 16.28Q16.67 16.21 16.67 16.00L16.67 16.00L16.67 11.00L13.86 11.00L13.86 11.00Q13.44 11.00 13.30 11.07L13.30 11.07L13.30 11.07Q13.16 11.14 13.16 11.35L13.16 11.35L13.16 16.35ZM24.15 7.83L25.27 7.67L25.27 17.18L24.78 17.18L24.51 16.63L24.51 16.63Q24.25 17.07 23.73 17.23L23.73 17.23L23.73 17.23Q23.21 17.39 22.26 17.39L22.26 17.39L22.26 17.39Q21.13 17.39 20.59 17.12L20.59 17.12L20.59 17.12Q20.06 16.84 19.87 16.08L19.87 16.08L19.87 16.08Q19.67 15.32 19.67 13.68L19.67 13.68L19.67 13.68Q19.67 12.14 19.86 11.39L19.86 11.39L19.86 11.39Q20.05 10.64 20.54 10.35L20.54 10.35L20.54 10.35Q21.03 10.05 22.04 10.05L22.04 10.05L22.04 10.05Q22.83 10.05 23.34 10.14L23.34 10.14L23.34 10.14Q23.84 10.22 24.15 10.42L24.15 10.42L24.15 7.83ZM24.15 16.09L24.15 11.00L21.49 11.00L21.49 11.00Q21.10 11.00 20.97 11.07L20.97 11.07L20.97 11.07Q20.83 11.14 20.83 11.35L20.83 11.35L20.83 16.44L23.48 16.44L23.48 16.44Q23.88 16.44 24.02 16.37L24.02 16.37L24.02 16.37Q24.15 16.30 24.15 16.09L24.15 16.09ZM33.28 10.18L33.28 17.18L32.79 17.18L32.48 16.48L32.48 16.48Q31.93 16.91 31.27 17.11L31.27 17.11L31.27 17.11Q30.60 17.30 29.74 17.30L29.74 17.30L29.74 17.30Q28.81 17.30 28.38 16.98L28.38 16.98L28.38 16.98Q27.94 16.65 27.94 15.95L27.94 15.95L27.94 10.18L29.06 10.18L29.06 16.39L30.84 16.39L30.84 16.39Q31.61 16.39 31.89 16.21L31.89 16.21L31.89 16.21Q32.16 16.03 32.16 15.50L32.16 15.50L32.16 10.18L33.28 10.18ZM37.06 16.34L37.69 16.39L37.62 17.16L37.62 17.16Q37.20 17.30 36.82 17.30L36.82 17.30L36.82 17.30Q35.94 17.30 35.94 16.35L35.94 16.35L35.94 8.08L37.06 7.87L37.06 16.34ZM42.15 10.05L42.15 10.05Q43.09 10.05 43.62 10.23L43.62 10.23L43.62 10.23Q44.14 10.40 44.37 10.81L44.37 10.81L44.37 10.81Q44.60 11.21 44.60 11.91L44.60 11.91L44.60 17.18L44.11 17.18L43.79 16.48L43.79 16.48Q43.30 16.91 42.69 17.11L42.69 17.11L42.69 17.11Q42.07 17.30 41.27 17.30L41.27 17.30L41.27 17.30Q40.14 17.30 39.66 16.84L39.66 16.84L39.66 16.84Q39.19 16.37 39.19 15.26L39.19 15.26L39.19 15.26Q39.19 14.20 39.45 13.76L39.45 13.76L39.45 13.76Q39.72 13.33 40.53 13.19L40.53 13.19L40.53 13.19Q41.34 13.05 43.32 13.05L43.32 13.05L43.48 13.05L43.48 11.14L43.48 11.14Q42.92 10.98 41.93 10.98L41.93 10.98L41.93 10.98Q40.85 10.98 39.65 11.30L39.65 11.30L39.49 10.46L39.49 10.46Q39.94 10.28 40.70 10.16L40.70 10.16L40.70 10.16Q41.45 10.05 42.15 10.05L42.15 10.05ZM42.34 16.39L42.34 16.39Q43.01 16.39 43.25 16.21L43.25 16.21L43.25 16.21Q43.48 16.03 43.48 15.53L43.48 15.53L43.48 13.86L41.37 13.86L41.37 13.86Q40.68 13.86 40.44 14.04L40.44 14.04L40.44 14.04Q40.19 14.22 40.19 14.71L40.19 14.71L40.19 16.39L42.34 16.39ZM47.78 10.18L48.22 11.33L48.22 11.33Q48.89 10.74 49.33 10.42L49.33 10.42L49.33 10.42Q49.77 10.11 50.11 9.97L50.11 9.97L50.25 11.07L50.25 11.07Q49.77 11.23 49.27 11.49L49.27 11.49L49.27 11.49Q48.76 11.76 48.40 12.04L48.40 12.04L48.40 17.18L47.28 17.18L47.28 10.18L47.78 10.18ZM51.69 17.18L51.69 17.18ZM51.86 10.22L52.98 10.04L52.98 17.18L51.86 17.18L51.86 10.22ZM52.43 8.83L52.43 8.83Q52.00 8.83 51.84 8.69L51.84 8.69L51.84 8.69Q51.69 8.54 51.69 8.12L51.69 8.12L51.69 8.12Q51.69 7.69 51.84 7.53L51.84 7.53L51.84 7.53Q52.00 7.38 52.43 7.38L52.43 7.38L52.43 7.38Q52.85 7.38 53.00 7.53L53.00 7.53L53.00 7.53Q53.14 7.69 53.14 8.12L53.14 8.12L53.14 8.12Q53.14 8.54 53.00 8.69L53.00 8.69L53.00 8.69Q52.86 8.83 52.43 8.83L52.43 8.83ZM58.88 11.07L58.81 10.99L55.31 10.99L55.22 10.18L60.26 10.18L60.26 10.79L56.29 16.28L56.34 16.37L60.16 16.37L60.16 17.18L54.92 17.18L54.92 16.56L58.88 11.07ZM64.64 10.05L64.64 10.05Q65.58 10.05 66.10 10.23L66.10 10.23L66.10 10.23Q66.63 10.40 66.86 10.81L66.86 10.81L66.86 10.81Q67.09 11.21 67.09 11.91L67.09 11.91L67.09 17.18L66.60 17.18L66.28 16.48L66.28 16.48Q65.79 16.91 65.17 17.11L65.17 17.11L65.17 17.11Q64.55 17.30 63.76 17.30L63.76 17.30L63.76 17.30Q62.62 17.30 62.15 16.84L62.15 16.84L62.15 16.84Q61.67 16.37 61.67 15.26L61.67 15.26L61.67 15.26Q61.67 14.20 61.94 13.76L61.94 13.76L61.94 13.76Q62.20 13.33 63.01 13.19L63.01 13.19L63.01 13.19Q63.83 13.05 65.80 13.05L65.80 13.05L65.97 13.05L65.97 11.14L65.97 11.14Q65.41 10.98 64.41 10.98L64.41 10.98L64.41 10.98Q63.34 10.98 62.13 11.30L62.13 11.30L61.98 10.46L61.98 10.46Q62.43 10.28 63.18 10.16L63.18 10.16L63.18 10.16Q63.94 10.05 64.64 10.05L64.64 10.05ZM64.82 16.39L64.82 16.39Q65.49 16.39 65.73 16.21L65.73 16.21L65.73 16.21Q65.97 16.03 65.97 15.53L65.97 15.53L65.97 13.86L63.85 13.86L63.85 13.86Q63.17 13.86 62.92 14.04L62.92 14.04L62.92 14.04Q62.68 14.22 62.68 14.71L62.68 14.71L62.68 16.39L64.82 16.39ZM72.63 10.98L71.33 10.98L71.33 16.34L71.33 16.34Q72.23 16.39 72.35 16.39L72.35 16.39L72.28 17.16L72.28 17.16Q71.48 17.30 71.09 17.30L71.09 17.30L71.09 17.30Q70.21 17.30 70.21 16.35L70.21 16.35L70.21 10.98L69.17 10.98L69.17 10.18L70.21 10.18L70.21 8.61L71.33 8.33L71.33 10.18L72.63 10.18L72.63 10.98ZM74.52 17.18L74.52 17.18ZM74.69 10.22L75.81 10.04L75.81 17.18L74.69 17.18L74.69 10.22ZM75.26 8.83L75.26 8.83Q74.83 8.83 74.68 8.69L74.68 8.69L74.68 8.69Q74.52 8.54 74.52 8.12L74.52 8.12L74.52 8.12Q74.52 7.69 74.68 7.53L74.68 7.53L74.68 7.53Q74.83 7.38 75.26 7.38L75.26 7.38L75.26 7.38Q75.68 7.38 75.83 7.53L75.83 7.53L75.83 7.53Q75.98 7.69 75.98 8.12L75.98 8.12L75.98 8.12Q75.98 8.54 75.84 8.69L75.84 8.69L75.84 8.69Q75.70 8.83 75.26 8.83L75.26 8.83ZM81.00 17.30L81.00 17.30Q79.76 17.30 79.16 17.02L79.16 17.02L79.16 17.02Q78.55 16.73 78.33 15.98L78.33 15.98L78.33 15.98Q78.11 15.23 78.11 13.68L78.11 13.68L78.11 13.68Q78.11 12.12 78.33 11.38L78.33 11.38L78.33 11.38Q78.55 10.63 79.16 10.34L79.16 10.34L79.16 10.34Q79.76 10.05 81.00 10.05L81.00 10.05L81.00 10.05Q82.26 10.05 82.87 10.33L82.87 10.33L82.87 10.33Q83.47 10.61 83.69 11.36L83.69 11.36L83.69 11.36Q83.92 12.11 83.92 13.68L83.92 13.68L83.92 13.68Q83.92 15.23 83.69 15.98L83.69 15.98L83.69 15.98Q83.47 16.73 82.86 17.02L82.86 17.02L82.86 17.02Q82.25 17.30 81.00 17.30L81.00 17.30ZM79.25 16.35L82.07 16.35L82.07 16.35Q82.49 16.35 82.63 16.28L82.63 16.28L82.63 16.28Q82.77 16.21 82.77 16.00L82.77 16.00L82.77 11.00L79.95 11.00L79.95 11.00Q79.53 11.00 79.39 11.07L79.39 11.07L79.39 11.07Q79.25 11.14 79.25 11.35L79.25 11.35L79.25 16.35ZM86.21 17.18L86.21 10.18L86.70 10.18L87.02 10.88L87.02 10.88Q87.53 10.44 88.14 10.25L88.14 10.25L88.14 10.25Q88.76 10.05 89.59 10.05L89.59 10.05L89.59 10.05Q91.55 10.05 91.55 11.16L91.55 11.16L91.55 17.18L90.43 17.18L90.43 10.96L88.65 10.96L88.65 10.96Q87.88 10.96 87.61 11.15L87.61 11.15L87.61 11.15Q87.33 11.34 87.33 11.86L87.33 11.86L87.33 17.18L86.21 17.18Z"></path></g><defs data-v-423bf9ae=""><linearGradient data-v-423bf9ae="" gradientTransform="rotate(25)" id="c8d10998-6bc1-4ce6-8383-1e3421f95529" x1="0%" y1="0%" x2="100%" y2="0%"><stop data-v-423bf9ae="" offset="0%" style="stop-color: rgb(146, 132, 219); stop-opacity: 1;"></stop><stop data-v-423bf9ae="" offset="100%" style="stop-color: rgb(39, 5, 199); stop-opacity: 1;"></stop></linearGradient></defs><g data-v-423bf9ae="" id="87950ad0-aba9-4602-a728-077274d8ac35" transform="matrix(1.0714285373687744,0,0,1.0714285373687744,218.12779235839844,-8.571426391601562)" stroke="none" fill="url(#c8d10998-6bc1-4ce6-8383-1e3421f95529)"><path d="M65 45.5l-15-8.7-15 8.7 15 8.7z"></path><path d="M50 34.5l17 9.8 3-1.7V19.5L50 8 30 19.5v23.1l3 1.7zM33 48.3v18l15.7 9V57.4z"></path><path d="M31 67.4V47.2l-2.3-1.4-20 11.6v23.1l20 11.5 20-11.5v-2.9zM69 47.2v20.2L51.3 77.6v2.9l20 11.5 20-11.5V57.4l-20-11.6z"></path><path d="M67 66.3v-18l-15.7 9.1v17.9z"></path></g><!----></svg>